<svg xmlns="http://www.w3.org/2000/svg" width="188" height="12" viewBox="0 0 188 12">
  <g fill="none" fill-rule="evenodd">
    <path fill="#999595" fill-rule="nonzero" d="M6.90777512,4.59375 C6.36195694,4.092 5.78098565,3.7875 5.05562201,3.624 C2.87650718,3.131625 0.707976077,4.485 0.211674641,6.6465 L6.90777512,4.59375 Z M5.70652153,11.694375 C6.41752153,11.4765 6.97354545,11.12925 7.47929665,10.587375 C8.99881818,8.96175 8.90167464,6.421875 7.26270813,4.914375 L5.70652153,11.694375 Z M0.107349282,7.101375 C-0.0578325359,7.821375 -0.0332631579,8.472375 0.186727273,9.17775 C0.846320574,11.296125 3.11199522,12.482625 5.24726316,11.82825 L0.107349282,7.101375 Z M40.6740383,1.1985 C40.6740383,0.702 40.2185598,0.2955 39.657244,0.2955 C39.0804306,0.2955 38.6257081,0.702 38.6257081,1.1985 L40.6740383,1.1985 Z M78.7493923,7.72125 C78.8249904,4.996875 77.6415024,3.566625 75.4722153,3.566625 C73.3331675,3.566625 71.9829856,5.101875 71.9829856,7.75125 C71.9829856,10.491 73.4541244,11.98125 75.7757416,11.98125 C77.0200861,11.98125 77.8996699,11.7255 78.4761053,11.409 L78.0361244,10.25025 C77.5961435,10.476 76.9138708,10.70175 75.9726746,10.70175 C74.6224928,10.70175 73.8941053,9.949125 73.7429091,8.443875 L78.7493923,7.72125 Z M77.0200861,6.998625 L73.6363158,7.5105 C73.5909569,5.56875 74.3340861,4.695375 75.4113589,4.695375 C76.4277751,4.695375 77.0200861,5.358 77.0200861,6.998625 L77.0200861,6.998625 Z M71.3604354,11.424375 L70.9355742,10.294875 C70.6777847,10.506 70.3292775,10.65675 69.8280622,10.65675 C68.690689,10.65675 68.0681388,9.51225 68.0681388,7.72125 C68.0681388,5.94525 68.5992153,4.816125 69.8590574,4.816125 C70.389756,4.816125 70.7235215,4.9815 70.9506938,5.162625 L71.3453158,4.123875 C71.0417895,3.86775 70.4502344,3.567 69.4489378,3.567 C67.6281579,3.567 66.202378,5.056875 66.202378,7.751625 C66.202378,10.430625 67.5673014,11.980875 69.4338182,11.980875 C70.4203732,11.980875 71.0266699,11.7255 71.3604354,11.424375 L71.3604354,11.424375 Z M64.7304833,11.8305 L64.7304833,6.05025 C64.7304833,4.741125 63.9264976,3.566625 61.4831675,3.566625 C60.1027464,3.566625 59.0557129,3.792375 58.2819665,4.153875 L58.2819665,11.8305 L60.1333636,11.8305 L60.1333636,4.9515 C60.4822488,4.816125 60.8008947,4.726125 61.4075694,4.726125 C62.5759378,4.726125 62.8794641,5.418 62.8794641,6.080625 L62.8794641,11.8305 L64.7304833,11.8305 Z M56.4732823,11.394 L56.4732823,6.36675 C56.4732823,4.27425 55.1385981,3.566625 53.4542727,3.566625 C52.1645694,3.566625 51.1783923,3.928125 50.6469378,4.183875 L51.072177,5.237625 C51.5730144,4.9965 52.3312632,4.741125 53.1201292,4.741125 C54.076445,4.741125 54.7439761,5.026875 54.7439761,6.080625 L54.7439761,6.517125 C52.2560431,6.757875 50.1770957,7.375125 50.1770957,9.512625 C50.1770957,11.077875 51.2846077,11.980875 53.5147512,11.980875 C54.7893349,11.980875 55.8212488,11.7405 56.4732823,11.394 L56.4732823,11.394 Z M54.7439761,10.73175 C54.471067,10.867125 54.0613254,10.9575 53.6364641,10.9575 C52.5591914,10.9575 51.9215215,10.506375 51.9215215,9.45225 C51.9215215,7.977 52.9991722,7.60125 54.7439761,7.390125 L54.7439761,10.73175 Z M48.8964641,11.8305 L48.8964641,6.05025 C48.8964641,4.741125 48.0924785,3.566625 45.6499043,3.566625 C44.2687273,3.566625 43.2216938,3.792375 42.4483254,4.153875 L42.4483254,11.8305 L44.2989665,11.8305 L44.2989665,4.9515 C44.6482297,4.816125 44.9668756,4.726125 45.5739282,4.726125 C46.7419187,4.726125 47.045445,5.418 47.045445,6.080625 L47.045445,11.8305 L48.8964641,11.8305 Z M40.567823,3.717375 L36.3343301,3.717375 L36.3343301,2.55825 C36.3343301,1.519875 36.8801483,1.203375 37.684134,1.188375 L37.684134,0.01425 C35.6819187,-0.136125 34.483311,0.917625 34.483311,2.739 L34.483311,3.717375 L33.5723541,3.717375 L33.5723541,4.8915 L34.483311,4.8915 L34.483311,11.8305 L36.3343301,11.8305 L36.3343301,4.8915 L38.7160478,4.8915 L38.7156699,11.8305 L40.567067,11.8305 L40.567067,4.8915 L40.567823,4.8915 L40.567823,3.717375 Z M32.7759282,11.424375 L32.351067,10.294875 C32.0932775,10.506 31.7443923,10.65675 31.243555,10.65675 C30.1054258,10.65675 29.4836316,9.51225 29.4836316,7.72125 C29.4836316,5.94525 30.0147081,4.816125 31.2737943,4.816125 C31.8048708,4.816125 32.1386364,4.9815 32.3661866,5.162625 L32.7608086,4.123875 C32.4576603,3.86775 31.8657273,3.567 30.8640526,3.567 C29.0436507,3.567 27.6174928,5.056875 27.6174928,7.751625 C27.6174928,10.430625 28.9827943,11.980875 30.848933,11.980875 C31.835488,11.980875 32.4421627,11.7255 32.7759282,11.424375 L32.7759282,11.424375 Z M26.5553397,7.585875 C26.5553397,5.162625 25.2353971,3.612 23.3390191,3.612 C22.5648947,3.612 22.1249139,3.762 21.7306699,3.943125 L21.7306699,0.014625 L19.8947703,0.014625 L19.8947703,11.394375 C20.4107273,11.7255 21.3360478,11.980875 22.595512,11.980875 C25.1443014,11.980875 26.5553397,10.309875 26.5553397,7.585875 L26.5553397,7.585875 Z M24.7194402,7.69125 C24.7194402,9.617625 24.1278852,10.852125 22.67111,10.852125 C22.3222249,10.852125 21.9733397,10.79175 21.7306699,10.68675 L21.7306699,4.9215 C22.0341962,4.756125 22.3373445,4.680375 22.8381818,4.680375 C24.2341005,4.680375 24.7194402,6.00525 24.7194402,7.69125 L24.7194402,7.69125 Z M18.3650431,11.394 L18.3650431,6.36675 C18.3650431,4.27425 17.0296029,3.566625 15.3456555,3.566625 C14.0559522,3.566625 13.0697751,3.928125 12.5383206,4.183875 L12.9635598,5.237625 C13.4643971,4.9965 14.2230239,4.741125 15.011512,4.741125 C15.9678278,4.741125 16.6349809,5.026875 16.6349809,6.080625 L16.6349809,6.517125 C14.1466699,6.757875 12.0681005,7.375125 12.0681005,9.512625 C12.0681005,11.077875 13.1759904,11.980875 15.406134,11.980875 C16.6803397,11.980875 17.7122536,11.7405 18.3650431,11.394 L18.3650431,11.394 Z M16.6349809,10.73175 C16.3624498,10.867125 15.9527081,10.9575 15.5278469,10.9575 C14.4505742,10.9575 13.8132823,10.506375 13.8132823,9.45225 C13.8132823,7.977 14.890555,7.60125 16.6349809,7.390125 L16.6349809,10.73175 Z" transform="translate(109.000000, 0.000000)"/>
    <path fill="#999595" fill-rule="nonzero" d="M6.846,11.804 L6.846,10.67 L1.232,10.67 L1.232,7.422 L6.426,7.422 L6.426,6.302 L1.232,6.302 L1.232,3.138 L6.706,3.138 L6.706,2.004 L-8.52651283e-14,2.004 L-8.52651283e-14,11.804 L6.846,11.804 Z M9.744,3.236 C10.22,3.236 10.556,2.886 10.556,2.424 C10.556,1.962 10.22,1.612 9.744,1.612 C9.268,1.612 8.932,1.962 8.932,2.424 C8.932,2.886 9.268,3.236 9.744,3.236 Z M10.332,11.804 L10.332,4.72 L9.156,4.72 L9.156,11.804 L10.332,11.804 Z M14.042,11.804 L14.042,7.59 C14.042,6.372 14.98,5.616 16.226,5.616 C17.332,5.616 17.85,6.204 17.85,7.548 L17.85,11.804 L19.026,11.804 L19.026,7.268 C19.026,5.504 18.102,4.524 16.506,4.524 C15.372,4.524 14.448,5.014 14.042,5.924 L14.042,4.72 L12.866,4.72 L12.866,11.804 L14.042,11.804 Z M26.138,11.804 L26.138,8.066 L28.91,8.066 C31.024,8.066 32.214,6.904 32.214,5.042 C32.214,3.18 31.024,2.004 28.91,2.004 L24.906,2.004 L24.906,11.804 L26.138,11.804 Z M28.812,6.946 L26.138,6.946 L26.138,3.138 L28.812,3.138 C30.31,3.138 30.926,3.726 30.926,5.042 C30.926,6.358 30.31,6.946 28.812,6.946 Z M35.322,11.804 L35.322,8.178 C35.322,6.47 36.162,5.7 37.506,5.7 C37.688,5.7 37.912,5.714 38.122,5.742 L38.122,4.706 C37.926,4.636 37.716,4.608 37.478,4.608 C36.442,4.608 35.644,5.14 35.322,6.05 L35.322,4.72 L34.146,4.72 L34.146,11.804 L35.322,11.804 Z M42.588,12 C44.8,12 46.228,10.278 46.228,8.262 C46.228,6.246 44.8,4.524 42.588,4.524 C40.376,4.524 38.948,6.246 38.948,8.262 C38.948,10.278 40.376,12 42.588,12 Z M42.588,10.908 C41.132,10.908 40.18,9.802 40.18,8.262 C40.18,6.722 41.132,5.616 42.588,5.616 C44.044,5.616 44.996,6.722 44.996,8.262 C44.996,9.802 44.044,10.908 42.588,10.908 Z M51.1,12 C52.304,12 53.312,11.412 53.732,10.502 L53.732,11.804 L54.908,11.804 L54.908,1.556 L53.732,1.556 L53.732,6.022 C53.312,5.112 52.304,4.524 51.1,4.524 C49.154,4.524 47.74,6.05 47.74,8.262 C47.74,10.474 49.154,12 51.1,12 Z M51.38,10.908 C49.924,10.908 48.972,9.802 48.972,8.262 C48.972,6.722 49.924,5.616 51.38,5.616 C52.836,5.616 53.788,6.722 53.788,8.262 C53.788,9.802 52.836,10.908 51.38,10.908 Z M60.34,12 C62.188,12 63.392,10.866 63.392,9.158 L63.392,4.72 L62.216,4.72 L62.216,9.088 C62.216,10.278 61.53,10.908 60.34,10.908 C59.15,10.908 58.464,10.278 58.464,9.088 L58.464,4.72 L57.288,4.72 L57.288,9.158 C57.288,10.866 58.492,12 60.34,12 Z M66.948,11.804 L66.948,8.598 L68.082,8.598 L70.644,11.804 L72.016,11.804 L69.048,8.08 L71.96,4.72 L70.588,4.72 L68.124,7.562 L66.948,7.562 L66.948,1.556 L65.772,1.556 L65.772,11.804 L66.948,11.804 Z M76.258,11.916 C76.608,11.916 77.07,11.874 77.532,11.734 L77.532,10.754 C77.126,10.838 76.734,10.88 76.426,10.88 C75.628,10.88 75.278,10.6 75.278,9.9 L75.278,5.728 L77.504,5.728 L77.504,4.72 L75.278,4.72 L75.278,2.62 L74.102,2.62 L74.102,4.72 L72.688,4.72 L72.688,5.728 L74.102,5.728 L74.102,9.984 C74.102,11.258 74.872,11.916 76.258,11.916 Z M85.4,12 C86.604,12 87.612,11.412 88.032,10.502 L88.032,11.804 L89.208,11.804 L89.208,1.556 L88.032,1.556 L88.032,6.022 C87.612,5.112 86.604,4.524 85.4,4.524 C83.454,4.524 82.04,6.05 82.04,8.262 C82.04,10.474 83.454,12 85.4,12 Z M85.68,10.908 C84.224,10.908 83.272,9.802 83.272,8.262 C83.272,6.722 84.224,5.616 85.68,5.616 C87.136,5.616 88.088,6.722 88.088,8.262 C88.088,9.802 87.136,10.908 85.68,10.908 Z M94.864,12 C96.18,12 97.258,11.44 97.944,10.474 L97.146,9.802 C96.544,10.558 95.788,10.908 94.892,10.908 C93.506,10.908 92.568,10.054 92.428,8.626 L98.098,8.626 C98.126,8.416 98.14,8.206 98.14,7.996 C98.14,5.924 96.74,4.524 94.766,4.524 C92.666,4.524 91.224,6.106 91.224,8.276 C91.224,10.474 92.708,12 94.864,12 Z M96.936,7.674 L92.456,7.674 C92.652,6.428 93.492,5.616 94.766,5.616 C95.97,5.616 96.824,6.344 96.936,7.674 Z M101.304,11.804 L101.304,8.178 C101.304,6.47 102.144,5.7 103.488,5.7 C103.67,5.7 103.894,5.714 104.104,5.742 L104.104,4.706 C103.908,4.636 103.698,4.608 103.46,4.608 C102.424,4.608 101.626,5.14 101.304,6.05 L101.304,4.72 L100.128,4.72 L100.128,11.804 L101.304,11.804 Z"/>
  </g>
</svg>
