<svg xmlns="http://www.w3.org/2000/svg" width="209" height="32" viewBox="0 0 209 32">
  <path fill="#B7172E" fill-rule="evenodd" d="M18.2627251,12.7415606 C16.8197019,11.4044656 15.2837416,10.5930149 13.3660397,10.1573098 C7.60493944,8.84519802 1.87182022,12.4517567 0.559708392,18.2118577 L18.2627251,12.7415606 Z M15.0868749,31.663752 C16.9666025,31.083145 18.4366074,30.1577714 19.7737023,28.7137489 C23.790983,24.3816813 23.5341569,17.6132629 19.2010899,13.5959822 L15.0868749,31.663752 Z M0.283895092,19.4240372 C-0.152809301,21.3427384 -0.0878532697,23.0775641 0.493753038,24.9572917 C2.23757264,30.6024704 8.22751801,33.7643301 13.8726968,32.0205105 L0.283895092,19.4240372 Z M107.533297,3.69368511 C107.533297,2.37058073 106.329113,1.287314 104.845117,1.287314 C103.320149,1.287314 102.117963,2.37058073 102.117963,3.69368511 L107.533297,3.69368511 Z M208.196158,21.075919 C208.396023,13.8158334 205.267141,10.0044133 199.532023,10.0044133 C193.876851,10.0044133 190.307267,14.095644 190.307267,21.1558649 C190.307267,28.4569227 194.196635,32.4282345 200.33448,32.4282345 C203.624253,32.4282345 205.949679,31.7466959 207.473647,30.9032668 L206.310435,27.815357 C205.147222,28.4169498 203.343443,29.0185426 200.855127,29.0185426 C197.285544,29.0185426 195.359847,27.0129002 194.960118,23.0016155 L208.196158,21.075919 Z M194.678308,20.5142991 C194.55839,15.3398018 196.52306,13.0123772 199.371132,13.0123772 C202.058313,13.0123772 203.624253,14.778182 203.624253,19.1502225 L194.678308,20.5142991 Z M187.538142,27.9342765 C186.856603,28.4968957 185.935227,28.8986238 184.610124,28.8986238 C181.603159,28.8986238 179.957273,25.8486883 179.957273,21.075919 C179.957273,16.3431226 181.361323,13.3341594 184.692068,13.3341594 C186.095118,13.3341594 186.977521,13.7748611 187.578115,14.2575344 L188.621408,11.4894081 C187.818952,10.8068702 186.25501,10.0054127 183.607802,10.0054127 C178.794061,10.0054127 175.024612,13.9757251 175.024612,21.1568642 C175.024612,28.2960317 178.63317,32.4272352 183.567829,32.4272352 C186.176064,32.4272352 187.778979,31.7466959 188.661381,30.9442391 L187.538142,27.9342765 Z M171.133246,32.0265065 L171.133246,16.6229332 C171.133246,13.1342947 169.007685,10.0044133 162.548058,10.0044133 C158.898528,10.0044133 156.130402,10.6060061 154.084786,11.569354 L154.084786,32.0265065 L158.979473,32.0265065 L158.979473,13.6949152 C159.901849,13.3341594 160.744279,13.0943218 162.348193,13.0943218 C165.437102,13.0943218 166.239559,14.9380737 166.239559,16.7038784 L166.239559,32.0265065 L171.133246,32.0265065 Z M149.303023,17.4663623 C149.303023,11.8901369 145.774412,10.0044133 141.321426,10.0044133 C137.911734,10.0044133 135.304499,10.9677612 133.89945,11.6492999 L135.023689,14.4573991 C136.347793,13.8148341 138.352436,13.1342947 140.438024,13.1342947 C142.966313,13.1342947 144.731118,13.8957793 144.731118,16.7038784 L144.731118,17.8670911 C138.15357,18.5086568 132.657291,20.1535433 132.657291,25.8496876 C132.657291,30.0208641 135.585309,32.4272352 141.481318,32.4272352 C144.851037,32.4272352 147.57919,31.7866688 149.303023,30.8632939 L149.303023,17.4663623 Z M144.731118,29.0984885 C144.009606,29.4592443 142.92634,29.7000812 141.8031,29.7000812 C138.955028,29.7000812 137.269169,28.497895 137.269169,25.6887965 C137.269169,21.7574576 140.11824,20.7561354 144.731118,20.1935163 L144.731118,29.0984885 Z M129.271583,32.0265065 L129.271583,16.6229332 C129.271583,13.1342947 127.146021,10.0044133 120.688393,10.0044133 C117.036864,10.0044133 114.268738,10.6060061 112.224122,11.569354 L112.224122,32.0265065 L117.11681,32.0265065 L117.11681,13.6949152 C118.040185,13.3341594 118.882615,13.0943218 120.487529,13.0943218 C123.575438,13.0943218 124.377895,14.9380737 124.377895,16.7038784 L124.377895,32.0265065 L129.271583,32.0265065 Z M107.252487,10.4061414 L96.0600637,10.4061414 L96.0600637,7.31723231 C96.0600637,4.5501054 97.5030869,3.70667632 99.6286481,3.66670337 L99.6286481,0.537821332 C94.3352312,0.137092587 91.1663763,2.94519177 91.1663763,7.79890626 L91.1663763,10.4061414 L88.7580065,10.4061414 L88.7580065,13.5350235 L91.1663763,13.5350235 L91.1663763,32.0265065 L96.0600637,32.0265065 L96.0600637,13.5350235 L102.356801,13.5350235 L102.355802,32.0265065 L107.250489,32.0265065 L107.250489,13.5350235 L107.252487,10.4061414 Z M85.5291921,27.9342765 C84.8476534,28.4968957 83.9252778,28.8986238 82.6011741,28.8986238 C79.5922109,28.8986238 77.9483236,25.8486883 77.9483236,21.075919 C77.9483236,16.3431226 79.3523732,13.3341594 82.68112,13.3341594 C84.0851696,13.3341594 84.9675723,13.7748611 85.569165,14.2575344 L86.6124588,11.4894081 C85.8110013,10.8068702 84.2460607,10.0054127 81.5978532,10.0054127 C76.785111,10.0054127 73.0146632,13.9757251 73.0146632,21.1568642 C73.0146632,28.2960317 76.6242199,32.4272352 81.5578803,32.4272352 C84.1661148,32.4272352 85.7700291,31.7466959 86.6524318,30.9442391 L85.5291921,27.9342765 Z M61.70332,10.1253315 C59.6567053,10.1253315 58.4934927,10.5250609 57.4511982,11.0077342 L57.4511982,0.538820655 L52.5974837,0.538820655 L52.5974837,30.8642932 C53.9615604,31.7466959 56.4079045,32.4272352 59.7376505,32.4272352 C66.4760892,32.4272352 70.2065641,27.9742495 70.2065641,20.7151632 C70.2065641,14.2575344 66.7169262,10.1253315 61.70332,10.1253315 Z M59.9375152,29.4192713 C59.0151396,29.4192713 58.092764,29.2583802 57.4511982,28.9785696 L57.4511982,13.6149693 C58.2536551,13.1742677 59.0551125,12.9724043 60.3792162,12.9724043 C64.0697181,12.9724043 65.3528496,16.5030144 65.3528496,20.9959731 C65.3528496,26.1294982 63.7889082,29.4192713 59.9375152,29.4192713 Z M48.5532213,17.4663623 C48.5532213,11.8901369 45.0226112,10.0044133 40.5706248,10.0044133 C37.1609328,10.0044133 34.5536977,10.9677612 33.1486488,11.6492999 L34.2728878,14.4573991 C35.5969915,13.8148341 37.6026338,13.1342947 39.6872228,13.1342947 C42.2155114,13.1342947 43.9793174,13.8957793 43.9793174,16.7038784 L43.9793174,17.8670911 C37.4007705,18.5086568 31.9054903,20.1535433 31.9054903,25.8496876 C31.9054903,30.0208641 34.8345076,32.4272352 40.7305166,32.4272352 C44.0992363,32.4272352 46.8273896,31.7866688 48.5532213,30.8632939 L48.5532213,17.4663623 Z M43.9793174,29.0984885 C43.2588051,29.4592443 42.1755384,29.7000812 41.0522987,29.7000812 C38.2042266,29.7000812 36.5193671,28.497895 36.5193671,25.6887965 C36.5193671,21.7574576 39.3674392,20.7561354 43.9793174,20.1935163 L43.9793174,29.0984885 Z" transform="translate(-24.000000, -3528.000000) translate(24.000000, 3527.500000)"/>
</svg>
