<?xml version="1.0" encoding="UTF-8"?>
<svg width="103px" height="32px" viewBox="0 0 103 32" version="1.1" xmlns="http://www.w3.org/2000/svg" xmlns:xlink="http://www.w3.org/1999/xlink">
    <!-- Generator: Sketch 64 (93537) - https://sketch.com -->
    <title>⚛️ Logo</title>
    <desc>Created with Sketch.</desc>
    <g stroke="none" stroke-width="1" fill="none" fill-rule="evenodd">
        <g transform="translate(-135.000000, -32.000000)" fill="#FFFFFF">
            <g transform="translate(135.900000, 32.000000)">
                <path d="M4.17472835,4.78717378 L5.0320822,13.8531738 L1.60862066,15.9891738 L4.17472835,4.78717378 Z M6.21094374,13.1171738 L5.17100528,2.07517378 L14.5423591,7.91917378 L6.21094374,13.1171738 Z M28.5914514,16.6851738 L19.7718207,16.6851738 C19.6785437,16.6851738 19.5971745,16.7511738 19.5773284,16.8431738 L17.2374668,27.4431738 L14.2069591,27.4431738 L11.8710668,16.8411738 C11.8512207,16.7491738 11.7698514,16.6831738 11.6745899,16.6831738 L2.85694374,16.6851738 L15.7232053,8.65917378 L28.5914514,16.6851738 Z M26.2773899,2.07517378 L25.2334822,13.1171738 L16.906036,7.91917378 L26.2773899,2.07517378 Z M27.2716822,4.78717378 L29.8377899,15.9891738 L26.416313,13.8531738 L27.2716822,4.78717378 Z M19.8750207,21.2691738 L23.4810668,17.9411738 L29.1808822,17.9411738 L18.4163284,27.8831738 L19.8750207,21.2691738 Z M2.86091297,18.4891738 L2.86091297,18.4891738 L2.26751297,17.9391738 L7.96534374,17.9391738 L11.5713899,21.2691738 L13.0280976,27.8811738 L8.40791297,23.6131738 L2.86091297,18.4891738 Z M27.190313,0.0311737847 L15.7232053,7.18117378 L4.2580822,0.0311737847 C4.14098989,-0.0428262153 3.98618989,0.0211737847 3.95642066,0.157173785 L0.00505143087,17.4131738 C-0.0108254922,17.4851738 0.011005277,17.5591738 0.0665745078,17.6071738 L15.5882514,31.9471738 C15.6636668,32.0171738 15.7827437,32.0171738 15.8601437,31.9471738 L31.3818207,17.6071738 C31.4354053,17.5591738 31.457236,17.4851738 31.4413591,17.4131738 L27.4899899,0.157173785 C27.458236,0.0211737847 27.3054207,-0.0428262153 27.190313,0.0311737847 L27.190313,0.0311737847 Z M99.3548976,20.6771738 L97.7076668,18.0591738 L96.0544822,20.6771738 L93.5816514,20.6771738 L96.2906514,16.5811738 L93.738436,12.6751738 L96.179513,12.6751738 L97.7076668,15.1391738 L99.2298668,12.6751738 L101.692775,12.6751738 L99.1226976,16.5811738 L101.84559,20.6771738 L99.3548976,20.6771738 Z M90.8924976,16.6791738 C90.8924976,15.3611738 90.1343745,14.4671738 88.9019284,14.4671738 C87.6734514,14.4671738 86.9093745,15.3611738 86.9093745,16.6791738 C86.9093745,17.9951738 87.6734514,18.8931738 88.9019284,18.8931738 C90.1343745,18.8931738 90.8924976,17.9951738 90.8924976,16.6791738 L90.8924976,16.6791738 Z M84.6687437,16.6791738 C84.6687437,14.3251738 86.3219284,12.4591738 88.9019284,12.4591738 C91.5017745,12.4591738 93.1529745,14.3251738 93.1529745,16.6791738 C93.1529745,19.0171738 91.5017745,20.9011738 88.9019284,20.9011738 C86.3219284,20.9011738 84.6687437,19.0171738 84.6687437,16.6791738 L84.6687437,16.6791738 Z M79.7389591,14.6271738 L78.2762976,14.6271738 L78.2762976,12.6751738 L79.7389591,12.6751738 L79.7389591,11.7231738 C79.7389591,10.0411738 80.5943284,9.05517378 82.6662668,9.05517378 C83.0850207,9.05517378 83.5355284,9.10517378 84.0038976,9.19717378 L84.0038976,11.0791738 C83.6784207,11.0151738 83.3946207,10.9891738 83.1167745,10.9891738 C82.2752976,10.9891738 81.947836,11.2951738 81.947836,11.9571738 L81.947836,12.6751738 L84.0038976,12.6751738 L84.0038976,14.6271738 L81.947836,14.6271738 L81.947836,20.6771738 L79.7389591,20.6771738 L79.7389591,14.6271738 Z M77.0398822,15.4351738 L77.0398822,20.6771738 L74.827036,20.6771738 L74.827036,16.0171738 C74.827036,14.9851738 74.4241591,14.4851738 73.475513,14.4851738 C72.4474822,14.4851738 71.824313,15.0771738 71.824313,16.1611738 L71.824313,20.6771738 L69.615436,20.6771738 L69.615436,9.19717378 L71.824313,9.19717378 L71.824313,13.7591738 C72.272836,12.9611738 73.1639284,12.4591738 74.3150053,12.4591738 C75.9939899,12.4591738 77.0398822,13.5251738 77.0398822,15.4351738 L77.0398822,15.4351738 Z M60.936713,19.4691738 L62.0084053,18.0131738 C62.6474514,18.6411738 63.6437284,19.0471738 64.6241284,19.0471738 C65.4060668,19.0471738 65.822836,18.7771738 65.822836,18.3731738 C65.822836,18.0131738 65.5430053,17.7911738 64.8722053,17.6371738 L63.5504514,17.3191738 C61.8833745,16.9291738 61.2324207,16.1431738 61.2324207,15.0491738 C61.2324207,13.5251738 62.4787591,12.4591738 64.5784822,12.4591738 C65.9796207,12.4591738 67.1922207,12.9251738 67.9086668,13.6791738 L66.8349899,15.1571738 C66.070913,14.5751738 65.2949284,14.3251738 64.5467284,14.3251738 C63.784636,14.3251738 63.4254207,14.5751738 63.4254207,14.9691738 C63.4254207,15.2651738 63.6615899,15.4711738 64.3601745,15.6291738 L65.7295591,15.9551738 C67.4244207,16.3471738 68.0336976,17.1351738 68.0336976,18.2471738 C68.0336976,19.8611738 66.7734668,20.9011738 64.6082514,20.9011738 C63.052313,20.9011738 61.7146822,20.3631738 60.936713,19.4691738 L60.936713,19.4691738 Z M57.3167745,16.6791738 C57.3167745,15.3611738 56.5546822,14.4671738 55.3242207,14.4671738 C54.0937591,14.4671738 53.3336514,15.3611738 53.3336514,16.6791738 C53.3336514,17.9951738 54.0937591,18.8931738 55.3242207,18.8931738 C56.5546822,18.8931738 57.3167745,17.9951738 57.3167745,16.6791738 L57.3167745,16.6791738 Z M59.4482514,12.6751738 L59.4482514,20.6771738 L57.2691437,20.6771738 L57.2691437,19.4851738 C56.8027591,20.3811738 55.8064822,20.9011738 54.667313,20.9011738 C52.5993437,20.9011738 51.0930207,19.1711738 51.0930207,16.6791738 C51.0930207,14.1811738 52.5993437,12.4591738 54.667313,12.4591738 C55.8064822,12.4591738 56.8027591,12.9791738 57.2691437,13.8731738 L57.2691437,12.6751738 L59.4482514,12.6751738 Z M39.7529284,15.2011738 C39.7529284,11.9391738 41.9955437,9.48317378 45.3713745,9.48317378 C47.5484976,9.48317378 49.3544976,10.4951738 50.2594822,12.4771738 L48.2828053,13.5071738 C47.6913899,12.2431738 46.6474822,11.6611738 45.4170207,11.6611738 C43.4582053,11.6611738 42.1503437,13.1311738 42.1503437,15.1851738 C42.1503437,17.2451738 43.4582053,18.7151738 45.4170207,18.7151738 C46.6474822,18.7151738 47.7092514,18.1391738 48.294713,16.8671738 L50.2594822,17.9011738 C49.3544976,19.8791738 47.5484976,20.9011738 45.3713745,20.9011738 C42.025313,20.9011738 39.7529284,18.4811738 39.7529284,15.2011738 L39.7529284,15.2011738 Z"></path>
            </g>
        </g>
    </g>
</svg>